<svg width="35" height="31" viewBox="0 0 35 31" fill="none" xmlns="http://www.w3.org/2000/svg">
<g clip-path="url(#clip0)">
<path d="M34.3001 3.79004H14.8601" stroke="white" stroke-miterlimit="10"/>
<path d="M8.70005 6.31002C10.0918 6.31002 11.2201 5.18178 11.2201 3.79002C11.2201 2.39826 10.0918 1.27002 8.70005 1.27002C7.3083 1.27002 6.18005 2.39826 6.18005 3.79002C6.18005 5.18178 7.3083 6.31002 8.70005 6.31002Z" fill="white" stroke="white" stroke-miterlimit="10"/>
<path d="M0.800049 11.35H20.24" stroke="white" stroke-miterlimit="10"/>
<path d="M26.4 13.87C27.7918 13.87 28.92 12.7418 28.92 11.35C28.92 9.95826 27.7918 8.83002 26.4 8.83002C25.0082 8.83002 23.88 9.95826 23.88 11.35C23.88 12.7418 25.0082 13.87 26.4 13.87Z" stroke="white" stroke-miterlimit="10"/>
<path d="M34.3001 19.96H14.8601" stroke="white" stroke-miterlimit="10"/>
<path d="M8.70005 22.48C10.0918 22.48 11.2201 21.3518 11.2201 19.96C11.2201 18.5682 10.0918 17.44 8.70005 17.44C7.3083 17.44 6.18005 18.5682 6.18005 19.96C6.18005 21.3518 7.3083 22.48 8.70005 22.48Z" fill="white" stroke="white" stroke-miterlimit="10"/>
<path d="M0.800049 27.52H20.24" stroke="white" stroke-miterlimit="10"/>
<path d="M26.4 30.04C27.7918 30.04 28.92 28.9118 28.92 27.52C28.92 26.1282 27.7918 25 26.4 25C25.0082 25 23.88 26.1282 23.88 27.52C23.88 28.9118 25.0082 30.04 26.4 30.04Z" stroke="white" stroke-miterlimit="10"/>
</g>
<defs>
<clipPath id="clip0">
<rect width="33.5" height="29.77" fill="white" transform="translate(0.800049 0.77002)"/>
</clipPath>
</defs>
</svg>
