<svg width="37" height="42" viewBox="0 0 37 42" fill="none" xmlns="http://www.w3.org/2000/svg">
<g clip-path="url(#clip0)">
<path d="M18.55 2.81006V38.8801" stroke="white" stroke-miterlimit="10"/>
<path d="M34.1701 11.8301L2.93005 29.8601" stroke="white" stroke-miterlimit="10"/>
<path d="M34.1701 29.8601L2.93005 11.8301" stroke="white" stroke-miterlimit="10"/>
<path d="M18.5501 31.08C24.1999 31.08 28.7801 26.4999 28.7801 20.85C28.7801 15.2001 24.1999 10.62 18.5501 10.62C12.9002 10.62 8.32007 15.2001 8.32007 20.85C8.32007 26.4999 12.9002 31.08 18.5501 31.08Z" fill="black" stroke="white" stroke-miterlimit="10"/>
<path d="M18.55 24.6101C20.6266 24.6101 22.31 22.9267 22.31 20.8501C22.31 18.7735 20.6266 17.0901 18.55 17.0901C16.4734 17.0901 14.79 18.7735 14.79 20.8501C14.79 22.9267 16.4734 24.6101 18.55 24.6101Z" fill="white"/>
<path d="M18.55 5.08004C19.8037 5.08004 20.82 4.06373 20.82 2.81004C20.82 1.55635 19.8037 0.540039 18.55 0.540039C17.2963 0.540039 16.28 1.55635 16.28 2.81004C16.28 4.06373 17.2963 5.08004 18.55 5.08004Z" fill="white"/>
<path d="M2.93003 14.1001C4.18372 14.1001 5.20003 13.0837 5.20003 11.8301C5.20003 10.5764 4.18372 9.56006 2.93003 9.56006C1.67635 9.56006 0.660034 10.5764 0.660034 11.8301C0.660034 13.0837 1.67635 14.1001 2.93003 14.1001Z" fill="white"/>
<path d="M2.93003 32.1301C4.18372 32.1301 5.20003 31.1138 5.20003 29.8601C5.20003 28.6064 4.18372 27.5901 2.93003 27.5901C1.67635 27.5901 0.660034 28.6064 0.660034 29.8601C0.660034 31.1138 1.67635 32.1301 2.93003 32.1301Z" fill="white"/>
<path d="M18.55 41.15C19.8037 41.15 20.82 40.1337 20.82 38.88C20.82 37.6263 19.8037 36.61 18.55 36.61C17.2963 36.61 16.28 37.6263 16.28 38.88C16.28 40.1337 17.2963 41.15 18.55 41.15Z" fill="white"/>
<path d="M34.17 32.1301C35.4237 32.1301 36.44 31.1138 36.44 29.8601C36.44 28.6064 35.4237 27.5901 34.17 27.5901C32.9163 27.5901 31.9 28.6064 31.9 29.8601C31.9 31.1138 32.9163 32.1301 34.17 32.1301Z" fill="white"/>
<path d="M34.17 14.1001C35.4237 14.1001 36.44 13.0837 36.44 11.8301C36.44 10.5764 35.4237 9.56006 34.17 9.56006C32.9163 9.56006 31.9 10.5764 31.9 11.8301C31.9 13.0837 32.9163 14.1001 34.17 14.1001Z" fill="white"/>
</g>
<defs>
<clipPath id="clip0">
<rect width="35.78" height="40.61" fill="white" transform="translate(0.660034 0.540039)"/>
</clipPath>
</defs>
</svg>
