<svg width="40" height="36" viewBox="0 0 40 36" fill="none" xmlns="http://www.w3.org/2000/svg">
<g clip-path="url(#clip0)">
<path d="M19.4399 7.84998L8.06995 27.54H30.8099L19.4399 7.84998Z" stroke="white" stroke-miterlimit="10"/>
<path d="M7.69 34.73C11.6609 34.73 14.88 31.5109 14.88 27.54C14.88 23.569 11.6609 20.35 7.69 20.35C3.71907 20.35 0.5 23.569 0.5 27.54C0.5 31.5109 3.71907 34.73 7.69 34.73Z" stroke="white" stroke-miterlimit="10"/>
<path d="M31.41 34.73C35.3809 34.73 38.6 31.5109 38.6 27.54C38.6 23.569 35.3809 20.35 31.41 20.35C27.439 20.35 24.22 23.569 24.22 27.54C24.22 31.5109 27.439 34.73 31.41 34.73Z" stroke="white" stroke-miterlimit="10"/>
<path d="M19.3701 15.03C23.341 15.03 26.5601 11.811 26.5601 7.84002C26.5601 3.8691 23.341 0.650024 19.3701 0.650024C15.3991 0.650024 12.1801 3.8691 12.1801 7.84002C12.1801 11.811 15.3991 15.03 19.3701 15.03Z" stroke="white" stroke-miterlimit="10"/>
<path d="M7.68997 30.1401C9.12591 30.1401 10.29 28.976 10.29 27.5401C10.29 26.1041 9.12591 24.9401 7.68997 24.9401C6.25403 24.9401 5.08997 26.1041 5.08997 27.5401C5.08997 28.976 6.25403 30.1401 7.68997 30.1401Z" fill="white"/>
<path d="M19.44 10.44C20.8759 10.44 22.04 9.27593 22.04 7.83999C22.04 6.40405 20.8759 5.23999 19.44 5.23999C18.004 5.23999 16.84 6.40405 16.84 7.83999C16.84 9.27593 18.004 10.44 19.44 10.44Z" fill="white"/>
<path d="M31.4101 30.1401C32.846 30.1401 34.0101 28.976 34.0101 27.5401C34.0101 26.1041 32.846 24.9401 31.4101 24.9401C29.9741 24.9401 28.8101 26.1041 28.8101 27.5401C28.8101 28.976 29.9741 30.1401 31.4101 30.1401Z" fill="white"/>
</g>
<defs>
<clipPath id="clip0">
<rect width="39.1" height="35.08" fill="white" transform="translate(0 0.150024)"/>
</clipPath>
</defs>
</svg>
